<svg width="110" height="23" fill="none" xmlns="http://www.w3.org/2000/svg"><path d="M44.59 15.416c-.442 0-.85-.051-1.224-.153l-.731.714c.125.08.278.147.459.204.181.057.436.108.765.153s.776.09 1.343.136c1.122.102 1.932.374 2.431.816.499.43.748 1.009.748 1.734 0 .499-.136.969-.408 1.411-.26.453-.674.816-1.241 1.088-.555.283-1.27.425-2.142.425-1.179 0-2.136-.227-2.873-.68-.725-.442-1.088-1.116-1.088-2.023 0-.351.09-.703.272-1.054.193-.34.493-.663.901-.969a4.631 4.631 0 0 1-.629-.323 5.439 5.439 0 0 1-.459-.374v-.408l1.462-1.496c-.657-.567-.986-1.309-.986-2.227 0-.555.13-1.06.391-1.513a2.909 2.909 0 0 1 1.173-1.105c.51-.272 1.122-.408 1.836-.408.476 0 .918.068 1.326.204h3.145v1.19l-1.496.085c.272.465.408.98.408 1.547s-.136 1.077-.408 1.53c-.26.453-.646.816-1.156 1.088-.499.272-1.105.408-1.819.408Zm0-1.411c.521 0 .94-.136 1.258-.408.329-.283.493-.68.493-1.19 0-.521-.164-.918-.493-1.19-.317-.272-.737-.408-1.258-.408-.533 0-.963.136-1.292.408-.317.272-.476.669-.476 1.19 0 .51.159.907.476 1.19.329.272.76.408 1.292.408Zm-2.261 5.066c0 .487.215.85.646 1.088.43.25.969.374 1.615.374.623 0 1.128-.136 1.513-.408.385-.26.578-.612.578-1.054 0-.329-.13-.612-.391-.85-.26-.227-.754-.368-1.479-.425a14.944 14.944 0 0 1-1.445-.153c-.397.215-.669.448-.816.697-.147.25-.221.493-.221.731ZM50.864 18V5.76h1.803V18h-1.803Zm8.225.204c-.805 0-1.53-.181-2.176-.544a4.132 4.132 0 0 1-1.513-1.547c-.374-.669-.561-1.445-.561-2.329 0-.884.187-1.655.56-2.312a4.056 4.056 0 0 1 1.548-1.547 4.23 4.23 0 0 1 2.159-.561c.804 0 1.524.187 2.159.561a3.939 3.939 0 0 1 1.53 1.547c.385.657.578 1.428.578 2.312 0 .884-.193 1.66-.578 2.329a4.093 4.093 0 0 1-1.53 1.547c-.646.363-1.372.544-2.176.544Zm0-1.547c.43 0 .827-.108 1.19-.323.374-.215.674-.533.9-.952.227-.43.34-.963.34-1.598 0-.635-.113-1.162-.34-1.581-.215-.43-.51-.754-.883-.969a2.289 2.289 0 0 0-1.19-.323c-.431 0-.833.108-1.207.323-.363.215-.658.538-.884.969-.227.42-.34.946-.34 1.581s.113 1.167.34 1.598c.226.42.52.737.884.952.362.215.759.323 1.19.323Zm11.171 1.547c-.657 0-1.24-.13-1.75-.391a3.02 3.02 0 0 1-1.19-1.105L67.132 18h-1.615V5.76h1.803v5.117c.272-.397.646-.748 1.122-1.054.476-.306 1.088-.459 1.836-.459.816 0 1.535.193 2.158.578.624.385 1.111.912 1.462 1.581.363.669.544 1.428.544 2.278 0 .85-.18 1.61-.543 2.278a4.046 4.046 0 0 1-1.463 1.564c-.623.374-1.348.561-2.176.561Zm-.306-1.564c.771 0 1.406-.26 1.905-.782.498-.533.748-1.224.748-2.074 0-.555-.114-1.048-.34-1.479a2.498 2.498 0 0 0-.935-1.003c-.397-.25-.856-.374-1.377-.374-.771 0-1.406.266-1.904.799-.488.533-.731 1.218-.731 2.057 0 .85.243 1.541.73 2.074.5.521 1.134.782 1.904.782Zm9.49 1.564c-.714 0-1.304-.119-1.768-.357-.465-.238-.81-.55-1.037-.935a2.56 2.56 0 0 1-.34-1.292c0-.816.317-1.462.952-1.938.634-.476 1.541-.714 2.72-.714h2.21v-.153c0-.657-.182-1.15-.544-1.479-.352-.329-.81-.493-1.377-.493-.499 0-.935.125-1.31.374-.362.238-.583.595-.662 1.071h-1.802c.056-.612.26-1.133.612-1.564a3.44 3.44 0 0 1 1.36-1.003 4.569 4.569 0 0 1 1.819-.357c1.178 0 2.09.312 2.737.935.646.612.969 1.45.969 2.516V18h-1.564l-.153-1.445a3.203 3.203 0 0 1-1.037 1.173c-.454.317-1.049.476-1.785.476Zm.357-1.462c.487 0 .895-.113 1.224-.34.34-.238.6-.55.782-.935a3.61 3.61 0 0 0 .357-1.275h-2.006c-.714 0-1.224.125-1.53.374-.295.25-.442.561-.442.935 0 .385.141.691.425.918.294.215.691.323 1.19.323ZM86.28 18V5.76h1.802V18H86.28Zm7.136 0V7.562h-3.519V6.1h8.823v1.462h-3.502V18h-1.802Zm5.127 0 4.386-11.9h1.972l4.352 11.9h-1.904l-1.02-2.907h-4.862L100.447 18h-1.904Zm3.434-4.335h3.842l-1.921-5.423-1.921 5.423ZM14.878 6.207l-.422-.62.422.62Zm.207-.141.421.62a.75.75 0 0 0 .198-1.042l-.62.422ZM6.14 12.153l-.422-.62.422.62Zm-.207.141-.62.422a.75.75 0 0 0 1.042.198l-.422-.62Zm-.281-.413-.422-.62a.75.75 0 0 0-.198 1.042l.62-.422Zm.206-.141-.422-.62.422.62Zm8.738-5.947.421.62-.421-.62Zm.206-.14.62-.422a.75.75 0 0 0-1.042-.198l.422.62Zm-8.22 8.867.167-.731-.167.731Zm-.244-.056.168-.73a.75.75 0 0 0-.899.563l.731.167Zm18.717 4.292-.168.731.168-.73Zm.243.056.732.168a.75.75 0 0 0-.564-.899l-.168.731Zm-.111.487-.168.732a.75.75 0 0 0 .899-.564l-.731-.168Zm-.244-.055-.168.73.168-.73ZM6.471 15.007l.168-.73-.168.73Zm-.244-.056-.73-.167a.75.75 0 0 0 .563.898l.167-.73ZM15.3 6.827l.207-.141-.845-1.24-.206.14.844 1.24Zm-8.737 5.946L15.3 6.827l-.844-1.24-8.737 5.946.844 1.24Zm-.207.141.207-.14-.844-1.24-.207.14.844 1.24Zm-1.323-.611.28.413 1.24-.844-.28-.413-1.24.844Zm.404-1.183-.206.14.844 1.24.206-.14-.844-1.24Zm8.738-5.947L5.437 11.12l.844 1.24 8.738-5.947-.845-1.24Zm.206-.14-.207.14.845 1.24.206-.14-.844-1.24Zm1.323.61-.28-.412-1.24.844.28.413 1.24-.844ZM6.75 13.79l-.243-.056-.336 1.462.244.056.335-1.462Zm18.473 4.236L6.75 13.79l-.335 1.462 18.473 4.236.335-1.462Zm.244.056-.244-.056-.335 1.462.244.056.335-1.462Zm.452 1.386.111-.487-1.462-.335-.111.487 1.462.335Zm-1.143.508.244.055.335-1.462-.243-.055-.336 1.462ZM6.303 15.738l18.473 4.237.336-1.462-18.473-4.237-.336 1.462Zm-.243-.056.243.056.336-1.462-.244-.056-.335 1.462Zm-.452-1.386-.112.488 1.462.335.112-.487-1.462-.335Z" fill="#000"/><path d="M16 3.5A1.5 1.5 0 0 1 17.5 2V.5a3 3 0 0 0-3 3H16ZM17.5 5A1.5 1.5 0 0 1 16 3.5h-1.5a3 3 0 0 0 3 3V5ZM19 3.5A1.5 1.5 0 0 1 17.5 5v1.5a3 3 0 0 0 3-3H19ZM17.5 2A1.5 1.5 0 0 1 19 3.5h1.5a3 3 0 0 0-3-3V2Zm0-2A3.5 3.5 0 0 0 14 3.5h1.5a2 2 0 0 1 2-2V0ZM21 3.5A3.5 3.5 0 0 0 17.5 0v1.5a2 2 0 0 1 2 2H21ZM17.5 7A3.5 3.5 0 0 0 21 3.5h-1.5a2 2 0 0 1-2 2V7ZM14 3.5A3.5 3.5 0 0 0 17.5 7V5.5a2 2 0 0 1-2-2H14Zm-12 10A1.5 1.5 0 0 1 3.5 12v-1.5a3 3 0 0 0-3 3H2ZM3.5 15A1.5 1.5 0 0 1 2 13.5H.5a3 3 0 0 0 3 3V15ZM5 13.5A1.5 1.5 0 0 1 3.5 15v1.5a3 3 0 0 0 3-3H5ZM3.5 12A1.5 1.5 0 0 1 5 13.5h1.5a3 3 0 0 0-3-3V12Zm0-2A3.5 3.5 0 0 0 0 13.5h1.5a2 2 0 0 1 2-2V10ZM7 13.5A3.5 3.5 0 0 0 3.5 10v1.5a2 2 0 0 1 2 2H7ZM3.5 17A3.5 3.5 0 0 0 7 13.5H5.5a2 2 0 0 1-2 2V17ZM0 13.5A3.5 3.5 0 0 0 3.5 17v-1.5a2 2 0 0 1-2-2H0Zm27.5 3a3 3 0 0 0-3 3H26a1.5 1.5 0 0 1 1.5-1.5v-1.5Zm3 3a3 3 0 0 0-3-3V18a1.5 1.5 0 0 1 1.5 1.5h1.5Zm-3 3a3 3 0 0 0 3-3H29a1.5 1.5 0 0 1-1.5 1.5v1.5Zm-3-3a3 3 0 0 0 3 3V21a1.5 1.5 0 0 1-1.5-1.5h-1.5Zm1 0a2 2 0 0 1 2-2V16a3.5 3.5 0 0 0-3.5 3.5h1.5Zm2 2a2 2 0 0 1-2-2H24a3.5 3.5 0 0 0 3.5 3.5v-1.5Zm2-2a2 2 0 0 1-2 2V23a3.5 3.5 0 0 0 3.5-3.5h-1.5Zm-2-2a2 2 0 0 1 2 2H31a3.5 3.5 0 0 0-3.5-3.5v1.5Z" fill="#000"/></svg>