<svg width="110" height="23" viewBox="0 0 110 23" fill="none" xmlns="http://www.w3.org/2000/svg">
<path d="M44.59 15.416C44.148 15.416 43.74 15.365 43.366 15.263L42.635 15.977C42.7597 16.0563 42.9127 16.1243 43.094 16.181C43.2753 16.2377 43.5303 16.2887 43.859 16.334C44.1877 16.3793 44.6353 16.4247 45.202 16.47C46.324 16.572 47.1343 16.844 47.633 17.286C48.1317 17.7167 48.381 18.2947 48.381 19.02C48.381 19.5187 48.245 19.989 47.973 20.431C47.7123 20.8843 47.2987 21.247 46.732 21.519C46.1767 21.8023 45.4627 21.944 44.59 21.944C43.4113 21.944 42.4537 21.7173 41.717 21.264C40.9917 20.822 40.629 20.1477 40.629 19.241C40.629 18.8897 40.7197 18.5383 40.901 18.187C41.0937 17.847 41.394 17.524 41.802 17.218C41.564 17.116 41.3543 17.0083 41.173 16.895C41.003 16.7703 40.85 16.6457 40.714 16.521V16.113L42.176 14.617C41.5187 14.0503 41.19 13.308 41.19 12.39C41.19 11.8347 41.3203 11.3303 41.581 10.877C41.853 10.4123 42.244 10.044 42.754 9.772C43.264 9.5 43.876 9.364 44.59 9.364C45.066 9.364 45.508 9.432 45.916 9.568H49.061V10.758L47.565 10.843C47.837 11.3077 47.973 11.8233 47.973 12.39C47.973 12.9567 47.837 13.4667 47.565 13.92C47.3043 14.3733 46.919 14.736 46.409 15.008C45.9103 15.28 45.304 15.416 44.59 15.416ZM44.59 14.005C45.1113 14.005 45.5307 13.869 45.848 13.597C46.1767 13.3137 46.341 12.917 46.341 12.407C46.341 11.8857 46.1767 11.489 45.848 11.217C45.5307 10.945 45.1113 10.809 44.59 10.809C44.0573 10.809 43.6267 10.945 43.298 11.217C42.9807 11.489 42.822 11.8857 42.822 12.407C42.822 12.917 42.9807 13.3137 43.298 13.597C43.6267 13.869 44.0573 14.005 44.59 14.005ZM42.329 19.071C42.329 19.5583 42.5443 19.921 42.975 20.159C43.4057 20.4083 43.944 20.533 44.59 20.533C45.2133 20.533 45.7177 20.397 46.103 20.125C46.4883 19.8643 46.681 19.513 46.681 19.071C46.681 18.7423 46.5507 18.459 46.29 18.221C46.0293 17.9943 45.5363 17.8527 44.811 17.796C44.267 17.762 43.7853 17.711 43.366 17.643C42.9693 17.8583 42.6973 18.0907 42.55 18.34C42.4027 18.5893 42.329 18.833 42.329 19.071ZM50.8645 18V5.76H52.6665V18H50.8645ZM59.0886 18.204C58.2839 18.204 57.5586 18.0227 56.9126 17.66C56.2779 17.286 55.7736 16.7703 55.3996 16.113C55.0256 15.4443 54.8386 14.668 54.8386 13.784C54.8386 12.9 55.0256 12.1293 55.3996 11.472C55.7849 10.8033 56.3006 10.2877 56.9466 9.925C57.5926 9.551 58.3123 9.364 59.1056 9.364C59.9103 9.364 60.6299 9.551 61.2646 9.925C61.9106 10.2877 62.4206 10.8033 62.7946 11.472C63.1799 12.1293 63.3726 12.9 63.3726 13.784C63.3726 14.668 63.1799 15.4443 62.7946 16.113C62.4206 16.7703 61.9106 17.286 61.2646 17.66C60.6186 18.0227 59.8933 18.204 59.0886 18.204ZM59.0886 16.657C59.5193 16.657 59.9159 16.5493 60.2786 16.334C60.6526 16.1187 60.9529 15.8013 61.1796 15.382C61.4063 14.9513 61.5196 14.4187 61.5196 13.784C61.5196 13.1493 61.4063 12.6223 61.1796 12.203C60.9643 11.7723 60.6696 11.4493 60.2956 11.234C59.9329 11.0187 59.5363 10.911 59.1056 10.911C58.6749 10.911 58.2726 11.0187 57.8986 11.234C57.5359 11.4493 57.2413 11.7723 57.0146 12.203C56.7879 12.6223 56.6746 13.1493 56.6746 13.784C56.6746 14.4187 56.7879 14.9513 57.0146 15.382C57.2413 15.8013 57.5359 16.1187 57.8986 16.334C58.2613 16.5493 58.6579 16.657 59.0886 16.657ZM70.2605 18.204C69.6032 18.204 69.0195 18.0737 68.5095 17.813C68.0108 17.5523 67.6142 17.184 67.3195 16.708L67.1325 18H65.5175V5.76H67.3195V10.877C67.5915 10.4803 67.9655 10.129 68.4415 9.823C68.9175 9.517 69.5295 9.364 70.2775 9.364C71.0935 9.364 71.8132 9.55667 72.4365 9.942C73.0598 10.3273 73.5472 10.8543 73.8985 11.523C74.2612 12.1917 74.4425 12.951 74.4425 13.801C74.4425 14.651 74.2612 15.4103 73.8985 16.079C73.5472 16.7363 73.0598 17.2577 72.4365 17.643C71.8132 18.017 71.0878 18.204 70.2605 18.204ZM69.9545 16.64C70.7252 16.64 71.3598 16.3793 71.8585 15.858C72.3572 15.3253 72.6065 14.634 72.6065 13.784C72.6065 13.2287 72.4932 12.7357 72.2665 12.305C72.0398 11.8743 71.7282 11.54 71.3315 11.302C70.9348 11.0527 70.4758 10.928 69.9545 10.928C69.1838 10.928 68.5492 11.1943 68.0505 11.727C67.5632 12.2597 67.3195 12.9453 67.3195 13.784C67.3195 14.634 67.5632 15.3253 68.0505 15.858C68.5492 16.3793 69.1838 16.64 69.9545 16.64ZM79.4437 18.204C78.7297 18.204 78.1403 18.085 77.6757 17.847C77.211 17.609 76.8653 17.2973 76.6387 16.912C76.412 16.5153 76.2987 16.0847 76.2987 15.62C76.2987 14.804 76.616 14.158 77.2507 13.682C77.8853 13.206 78.792 12.968 79.9707 12.968H82.1807V12.815C82.1807 12.1577 81.9993 11.6647 81.6367 11.336C81.2853 11.0073 80.8263 10.843 80.2597 10.843C79.761 10.843 79.3247 10.9677 78.9507 11.217C78.588 11.455 78.367 11.812 78.2877 12.288H76.4857C76.5423 11.676 76.7463 11.1547 77.0977 10.724C77.4603 10.282 77.9137 9.94767 78.4577 9.721C79.013 9.483 79.6193 9.364 80.2767 9.364C81.4553 9.364 82.3677 9.67567 83.0137 10.299C83.6597 10.911 83.9827 11.7497 83.9827 12.815V18H82.4187L82.2657 16.555C82.0277 17.0197 81.682 17.4107 81.2287 17.728C80.7753 18.0453 80.1803 18.204 79.4437 18.204ZM79.8007 16.742C80.288 16.742 80.696 16.6287 81.0247 16.402C81.3647 16.164 81.6253 15.8523 81.8067 15.467C81.9993 15.0817 82.1183 14.6567 82.1637 14.192H80.1577C79.4437 14.192 78.9337 14.3167 78.6277 14.566C78.333 14.8153 78.1857 15.127 78.1857 15.501C78.1857 15.8863 78.3273 16.1923 78.6107 16.419C78.9053 16.6343 79.302 16.742 79.8007 16.742ZM86.2799 18V5.76H88.0819V18H86.2799ZM93.4161 18V7.562H89.8971V6.1H98.7201V7.562H95.2181V18H93.4161ZM98.5426 18L102.929 6.1H104.901L109.253 18H107.349L106.329 15.093H101.467L100.447 18H98.5426ZM101.977 13.665H105.819L103.898 8.242L101.977 13.665Z" fill="black"/>
<path d="M14.8778 6.2066L14.4558 5.58658V5.58658L14.8778 6.2066ZM15.0845 6.06593L15.5065 6.68594C15.6709 6.57402 15.7842 6.40136 15.8213 6.20595C15.8584 6.01053 15.8164 5.80837 15.7045 5.64393L15.0845 6.06593ZM6.14059 12.1534L5.71859 11.5334H5.71859L6.14059 12.1534ZM5.93392 12.2941L5.31391 12.7161C5.42583 12.8805 5.59849 12.9937 5.7939 13.0309C5.98932 13.068 6.19148 13.026 6.35592 12.9141L5.93392 12.2941ZM5.65259 11.8807L5.23059 11.2607C4.88816 11.4938 4.79951 11.9603 5.03257 12.3027L5.65259 11.8807ZM5.85926 11.74L5.43726 11.12H5.43726L5.85926 11.74ZM14.5965 5.79325L15.0185 6.41327L15.0185 6.41327L14.5965 5.79325ZM14.8031 5.65259L15.4232 5.23059C15.3112 5.06615 15.1386 4.95291 14.9432 4.91577C14.7477 4.87864 14.5456 4.92065 14.3811 5.03257L14.8031 5.65259ZM6.58278 14.52L6.75042 13.7889L6.58278 14.52ZM6.3391 14.4641L6.50674 13.7331C6.31286 13.6886 6.10926 13.723 5.94073 13.8286C5.7722 13.9343 5.65254 14.1026 5.60808 14.2965L6.3391 14.4641ZM25.0558 18.7563L24.8882 19.4873L25.0558 18.7563ZM25.2995 18.8121L26.0305 18.9798C26.1231 18.576 25.8709 18.1737 25.4671 18.0811L25.2995 18.8121ZM25.1877 19.2995L25.0201 20.0305C25.214 20.075 25.4176 20.0406 25.5861 19.9349C25.7546 19.8293 25.8743 19.661 25.9187 19.4671L25.1877 19.2995ZM24.944 19.2436L24.7764 19.9746L24.944 19.2436ZM6.47102 15.0073L6.63866 14.2763H6.63866L6.47102 15.0073ZM6.22734 14.9514L5.49632 14.7838C5.45186 14.9777 5.48624 15.1813 5.59189 15.3498C5.69755 15.5183 5.86582 15.638 6.0597 15.6825L6.22734 14.9514ZM15.2998 6.82661L15.5065 6.68594L14.6625 5.44592L14.4558 5.58658L15.2998 6.82661ZM6.56259 12.7734L15.2998 6.82661L14.4558 5.58658L5.71859 11.5334L6.56259 12.7734ZM6.35592 12.9141L6.56259 12.7734L5.71859 11.5334L5.51192 11.674L6.35592 12.9141ZM5.03257 12.3027L5.31391 12.7161L6.55393 11.8721L6.2726 11.4587L5.03257 12.3027ZM5.43726 11.12L5.23059 11.2607L6.07459 12.5007L6.28126 12.3601L5.43726 11.12ZM14.1745 5.17324L5.43726 11.12L6.28126 12.3601L15.0185 6.41327L14.1745 5.17324ZM14.3811 5.03257L14.1745 5.17324L15.0185 6.41327L15.2251 6.2726L14.3811 5.03257ZM15.7045 5.64393L15.4232 5.23059L14.1831 6.07459L14.4645 6.48793L15.7045 5.64393ZM6.75042 13.7889L6.50674 13.7331L6.17146 15.1951L6.41514 15.251L6.75042 13.7889ZM25.2234 18.0252L6.75042 13.7889L6.41514 15.251L24.8882 19.4873L25.2234 18.0252ZM25.4671 18.0811L25.2234 18.0252L24.8882 19.4873L25.1318 19.5432L25.4671 18.0811ZM25.9187 19.4671L26.0305 18.9798L24.5685 18.6445L24.4567 19.1318L25.9187 19.4671ZM24.7764 19.9746L25.0201 20.0305L25.3554 18.5685L25.1117 18.5126L24.7764 19.9746ZM6.30338 15.7383L24.7764 19.9746L25.1117 18.5126L6.63866 14.2763L6.30338 15.7383ZM6.0597 15.6825L6.30338 15.7383L6.63866 14.2763L6.39498 14.2204L6.0597 15.6825ZM5.60808 14.2965L5.49632 14.7838L6.95837 15.1191L7.07013 14.6317L5.60808 14.2965Z" fill="black"/>
<path d="M16 3.5C16 2.67157 16.6716 2 17.5 2V0.5C15.8431 0.5 14.5 1.84315 14.5 3.5H16ZM17.5 5C16.6716 5 16 4.32843 16 3.5H14.5C14.5 5.15685 15.8431 6.5 17.5 6.5V5ZM19 3.5C19 4.32843 18.3284 5 17.5 5V6.5C19.1569 6.5 20.5 5.15685 20.5 3.5H19ZM17.5 2C18.3284 2 19 2.67157 19 3.5H20.5C20.5 1.84315 19.1569 0.5 17.5 0.5V2ZM17.5 0C15.567 0 14 1.567 14 3.5H15.5C15.5 2.39543 16.3954 1.5 17.5 1.5V0ZM21 3.5C21 1.567 19.433 0 17.5 0V1.5C18.6046 1.5 19.5 2.39543 19.5 3.5H21ZM17.5 7C19.433 7 21 5.433 21 3.5H19.5C19.5 4.60457 18.6046 5.5 17.5 5.5V7ZM14 3.5C14 5.433 15.567 7 17.5 7V5.5C16.3954 5.5 15.5 4.60457 15.5 3.5H14ZM2 13.5C2 12.6716 2.67157 12 3.5 12V10.5C1.84315 10.5 0.5 11.8431 0.5 13.5H2ZM3.5 15C2.67157 15 2 14.3284 2 13.5H0.5C0.5 15.1569 1.84315 16.5 3.5 16.5V15ZM5 13.5C5 14.3284 4.32843 15 3.5 15V16.5C5.15685 16.5 6.5 15.1569 6.5 13.5H5ZM3.5 12C4.32843 12 5 12.6716 5 13.5H6.5C6.5 11.8431 5.15685 10.5 3.5 10.5V12ZM3.5 10C1.567 10 0 11.567 0 13.5H1.5C1.5 12.3954 2.39543 11.5 3.5 11.5V10ZM7 13.5C7 11.567 5.433 10 3.5 10V11.5C4.60457 11.5 5.5 12.3954 5.5 13.5H7ZM3.5 17C5.433 17 7 15.433 7 13.5H5.5C5.5 14.6046 4.60457 15.5 3.5 15.5V17ZM0 13.5C0 15.433 1.567 17 3.5 17V15.5C2.39543 15.5 1.5 14.6046 1.5 13.5H0ZM27.5 16.5C25.8431 16.5 24.5 17.8431 24.5 19.5H26C26 18.6716 26.6716 18 27.5 18V16.5ZM30.5 19.5C30.5 17.8431 29.1569 16.5 27.5 16.5V18C28.3284 18 29 18.6716 29 19.5H30.5ZM27.5 22.5C29.1569 22.5 30.5 21.1569 30.5 19.5H29C29 20.3284 28.3284 21 27.5 21V22.5ZM24.5 19.5C24.5 21.1569 25.8431 22.5 27.5 22.5V21C26.6716 21 26 20.3284 26 19.5H24.5ZM25.5 19.5C25.5 18.3954 26.3954 17.5 27.5 17.5V16C25.567 16 24 17.567 24 19.5H25.5ZM27.5 21.5C26.3954 21.5 25.5 20.6046 25.5 19.5H24C24 21.433 25.567 23 27.5 23V21.5ZM29.5 19.5C29.5 20.6046 28.6046 21.5 27.5 21.5V23C29.433 23 31 21.433 31 19.5H29.5ZM27.5 17.5C28.6046 17.5 29.5 18.3954 29.5 19.5H31C31 17.567 29.433 16 27.5 16V17.5Z" fill="black"/>
</svg>
